<svg width="24" height="24" viewBox="0 0 24 24" fill="none" xmlns="http://www.w3.org/2000/svg">
<path d="M19.7143 11.5715C19.7172 12.7028 19.4529 13.8188 18.9428 14.8286C18.3381 16.0387 17.4083 17.0565 16.2578 17.768C15.1073 18.4796 13.7813 18.8567 12.4286 18.8572C11.2972 18.8602 10.1812 18.5958 9.17142 18.0858L4.28571 19.7144L5.91428 14.8286C5.40422 13.8188 5.1399 12.7028 5.14285 11.5715C5.14337 10.2187 5.52052 8.89281 6.23204 7.74226C6.94356 6.59172 7.96135 5.66199 9.17142 5.05722C10.1812 4.54716 11.2972 4.28284 12.4286 4.28579H12.8571C14.6437 4.38436 16.3312 5.13844 17.5964 6.40367C18.8616 7.6689 19.6157 9.35635 19.7143 11.1429V11.5715Z" stroke="#999999" stroke-linecap="round" stroke-linejoin="round"/>
</svg>
