<svg width="37" height="36" viewBox="0 0 37 36" fill="none" xmlns="http://www.w3.org/2000/svg">
<path d="M15.4429 12.1186C13.955 12.1186 12.5281 12.7096 11.476 13.7617C10.4239 14.8138 9.83287 16.2407 9.83287 17.7286V21.7357C9.83287 22.3734 9.57956 22.9849 9.12867 23.4358C8.67778 23.8867 8.06624 24.14 7.42859 24.14H23.4571C22.8195 24.14 22.2079 23.8867 21.7571 23.4358C21.3062 22.9849 21.0529 22.3734 21.0529 21.7357V17.7286C21.0529 16.2407 20.4618 14.8138 19.4097 13.7617C18.3577 12.7096 16.9307 12.1186 15.4429 12.1186ZM15.4429 12.1186V9.71428M16.8293 27.3457C16.6884 27.5886 16.4862 27.7902 16.2429 27.9304C15.9995 28.0705 15.7237 28.1443 15.4429 28.1443C15.1621 28.1443 14.8862 28.0705 14.6429 27.9304C14.3995 27.7902 14.1973 27.5886 14.0564 27.3457" stroke="white" stroke-linecap="round" stroke-linejoin="round"/>
<rect y="4" width="32" height="32" rx="7" fill="#F6F6F6" fill-opacity="0.31"/>
<circle cx="31.5" cy="5.5" r="5.5" fill="#FF8762"/>
</svg>
