<svg width="24" height="24" viewBox="0 0 24 24" fill="none" xmlns="http://www.w3.org/2000/svg">
<path d="M11.4429 4.11856C9.955 4.11856 8.52808 4.70961 7.476 5.76169C6.42392 6.81377 5.83287 8.24069 5.83287 9.72856V13.7357C5.83287 14.3734 5.57956 14.9849 5.12867 15.4358C4.67778 15.8867 4.06624 16.14 3.42859 16.14H19.4571C18.8195 16.14 18.2079 15.8867 17.7571 15.4358C17.3062 14.9849 17.0529 14.3734 17.0529 13.7357V9.72856C17.0529 8.24069 16.4618 6.81377 15.4097 5.76169C14.3577 4.70961 12.9307 4.11856 11.4429 4.11856ZM11.4429 4.11856V1.71428M12.8293 19.3457C12.6884 19.5886 12.4862 19.7902 12.2429 19.9304C11.9995 20.0705 11.7237 20.1443 11.4429 20.1443C11.1621 20.1443 10.8862 20.0705 10.6429 19.9304C10.3995 19.7902 10.1973 19.5886 10.0564 19.3457" stroke="white" stroke-linecap="round" stroke-linejoin="round"/>
</svg>
