<svg width="290" height="216" viewBox="0 0 290 216" fill="none" xmlns="http://www.w3.org/2000/svg">
<path d="M11.6139 75.3929H224.965" stroke="#7C828A" stroke-width="0.860288" stroke-dasharray="0.86 2.58"/>
<rect x="185.822" y="95.6097" width="17.2058" height="101.514" rx="3.44115" fill="#7388A9" fill-opacity="0.353283"/>
<rect x="154.852" y="118.837" width="17.2058" height="78.2862" rx="3.44115" fill="#7388A9" fill-opacity="0.353283"/>
<rect x="123.881" y="41.4115" width="17.2058" height="155.712" rx="3.44115" fill="#8778B7"/>
<rect x="92.9111" y="101.632" width="17.2058" height="95.492" rx="3.44115" fill="#7388A9" fill-opacity="0.353283"/>
<rect x="61.9408" y="7" width="17.2058" height="190.124" rx="3.44115" fill="#8778B7"/>
<rect x="30.9703" y="63.7791" width="17.2058" height="133.345" rx="3.44115" fill="#8778B7"/>
<rect y="130.021" width="17.2058" height="67.1025" rx="3.44115" fill="#7388A9" fill-opacity="0.353283"/>
<path d="M277.025 193.14C277.809 193.196 278.441 193.42 278.921 193.812C279.409 194.204 279.653 194.732 279.653 195.396C279.653 195.916 279.517 196.38 279.245 196.788C278.981 197.188 278.601 197.5 278.105 197.724C277.617 197.948 277.033 198.06 276.353 198.06C275.793 198.06 275.241 197.98 274.697 197.82C274.153 197.652 273.689 197.432 273.305 197.16L273.893 196.08C274.221 196.352 274.589 196.564 274.997 196.716C275.413 196.86 275.833 196.932 276.257 196.932C276.681 196.932 277.041 196.872 277.337 196.752C277.641 196.624 277.873 196.448 278.033 196.224C278.193 195.992 278.273 195.728 278.273 195.432C278.273 194.96 278.093 194.604 277.733 194.364C277.373 194.124 276.873 194.004 276.233 194.004H275.009V193.164L277.901 190.32L278.093 190.8H273.725L273.713 189.6H279.233V190.44L276.089 193.536L275.909 193.056L277.025 193.14ZM284.499 189.54C285.643 189.54 286.523 189.908 287.139 190.644C287.755 191.38 288.063 192.432 288.063 193.8C288.063 195.168 287.755 196.22 287.139 196.956C286.523 197.692 285.643 198.06 284.499 198.06C283.347 198.06 282.463 197.692 281.847 196.956C281.231 196.22 280.923 195.168 280.923 193.8C280.923 192.432 281.231 191.38 281.847 190.644C282.463 189.908 283.347 189.54 284.499 189.54ZM284.499 190.596C283.795 190.596 283.263 190.86 282.903 191.388C282.551 191.908 282.375 192.712 282.375 193.8C282.375 194.88 282.551 195.684 282.903 196.212C283.263 196.74 283.795 197.004 284.499 197.004C285.203 197.004 285.731 196.74 286.083 196.212C286.435 195.684 286.611 194.88 286.611 193.8C286.611 192.712 286.435 191.908 286.083 191.388C285.731 190.86 285.203 190.596 284.499 190.596Z" fill="#7C828A"/>
<path d="M277.708 162.14C278.492 162.196 279.124 162.42 279.604 162.812C280.092 163.204 280.336 163.732 280.336 164.396C280.336 164.916 280.2 165.38 279.928 165.788C279.664 166.188 279.284 166.5 278.788 166.724C278.3 166.948 277.716 167.06 277.036 167.06C276.476 167.06 275.924 166.98 275.38 166.82C274.836 166.652 274.372 166.432 273.988 166.16L274.576 165.08C274.904 165.352 275.272 165.564 275.68 165.716C276.096 165.86 276.516 165.932 276.94 165.932C277.364 165.932 277.724 165.872 278.02 165.752C278.324 165.624 278.556 165.448 278.716 165.224C278.876 164.992 278.956 164.728 278.956 164.432C278.956 163.96 278.776 163.604 278.416 163.364C278.056 163.124 277.556 163.004 276.916 163.004H275.692V162.164L278.584 159.32L278.776 159.8H274.408L274.396 158.6H279.916V159.44L276.772 162.536L276.592 162.056L277.708 162.14ZM283.467 162.32L283.155 161.708C283.251 161.7 283.391 161.696 283.575 161.696C283.767 161.688 283.967 161.684 284.175 161.684C284.383 161.684 284.559 161.684 284.703 161.684C285.343 161.684 285.895 161.796 286.359 162.02C286.831 162.244 287.195 162.548 287.451 162.932C287.707 163.316 287.835 163.752 287.835 164.24C287.835 164.808 287.699 165.304 287.427 165.728C287.163 166.152 286.787 166.48 286.299 166.712C285.819 166.944 285.251 167.06 284.595 167.06C284.083 167.06 283.543 166.972 282.975 166.796C282.415 166.62 281.919 166.388 281.487 166.1L282.063 165.02C282.415 165.292 282.799 165.504 283.215 165.656C283.631 165.808 284.047 165.884 284.463 165.884C285.031 165.884 285.483 165.744 285.819 165.464C286.155 165.184 286.323 164.808 286.323 164.336C286.323 163.888 286.159 163.536 285.831 163.28C285.511 163.016 285.019 162.884 284.355 162.884C284.259 162.884 284.119 162.888 283.935 162.896C283.751 162.896 283.547 162.904 283.323 162.92C283.107 162.928 282.895 162.94 282.687 162.956C282.479 162.972 282.299 162.988 282.147 163.004V158.6H287.475V159.8H282.831L283.467 159.176V162.32Z" fill="#7C828A"/>
<path d="M273.258 133.912V132.904L276.114 127.6H277.482L274.482 133.228L274.158 132.712H279.918V133.912H273.258ZM277.35 130.672H278.67V136H277.35V130.672ZM284.546 127.54C285.69 127.54 286.57 127.908 287.186 128.644C287.802 129.38 288.11 130.432 288.11 131.8C288.11 133.168 287.802 134.22 287.186 134.956C286.57 135.692 285.69 136.06 284.546 136.06C283.394 136.06 282.51 135.692 281.894 134.956C281.278 134.22 280.97 133.168 280.97 131.8C280.97 130.432 281.278 129.38 281.894 128.644C282.51 127.908 283.394 127.54 284.546 127.54ZM284.546 128.596C283.842 128.596 283.31 128.86 282.95 129.388C282.598 129.908 282.422 130.712 282.422 131.8C282.422 132.88 282.598 133.684 282.95 134.212C283.31 134.74 283.842 135.004 284.546 135.004C285.25 135.004 285.778 134.74 286.13 134.212C286.482 133.684 286.658 132.88 286.658 131.8C286.658 130.712 286.482 129.908 286.13 129.388C285.778 128.86 285.25 128.596 284.546 128.596Z" fill="#7C828A"/>
<path d="M273.941 102.912V101.904L276.797 96.6H278.165L275.165 102.228L274.841 101.712H280.601V102.912H273.941ZM278.033 99.672H279.353V105H278.033V99.672ZM283.513 100.32L283.201 99.708C283.297 99.7 283.437 99.696 283.621 99.696C283.813 99.688 284.013 99.684 284.221 99.684C284.429 99.684 284.605 99.684 284.749 99.684C285.389 99.684 285.941 99.796 286.405 100.02C286.877 100.244 287.241 100.548 287.497 100.932C287.753 101.316 287.881 101.752 287.881 102.24C287.881 102.808 287.745 103.304 287.473 103.728C287.209 104.152 286.833 104.48 286.345 104.712C285.865 104.944 285.297 105.06 284.641 105.06C284.129 105.06 283.589 104.972 283.021 104.796C282.461 104.62 281.965 104.388 281.533 104.1L282.109 103.02C282.461 103.292 282.845 103.504 283.261 103.656C283.677 103.808 284.093 103.884 284.509 103.884C285.077 103.884 285.529 103.744 285.865 103.464C286.201 103.184 286.369 102.808 286.369 102.336C286.369 101.888 286.205 101.536 285.877 101.28C285.557 101.016 285.065 100.884 284.401 100.884C284.305 100.884 284.165 100.888 283.981 100.896C283.797 100.896 283.593 100.904 283.369 100.92C283.153 100.928 282.941 100.94 282.733 100.956C282.525 100.972 282.345 100.988 282.193 101.004V96.6H287.521V97.8H282.877L283.513 97.176V100.32Z" fill="#7C828A"/>
<path d="M275.541 69.32L275.229 68.708C275.325 68.7 275.465 68.696 275.649 68.696C275.841 68.688 276.041 68.684 276.249 68.684C276.457 68.684 276.633 68.684 276.777 68.684C277.417 68.684 277.969 68.796 278.433 69.02C278.905 69.244 279.269 69.548 279.525 69.932C279.781 70.316 279.909 70.752 279.909 71.24C279.909 71.808 279.773 72.304 279.501 72.728C279.237 73.152 278.861 73.48 278.373 73.712C277.893 73.944 277.325 74.06 276.669 74.06C276.157 74.06 275.617 73.972 275.049 73.796C274.489 73.62 273.993 73.388 273.561 73.1L274.137 72.02C274.489 72.292 274.873 72.504 275.289 72.656C275.705 72.808 276.121 72.884 276.537 72.884C277.105 72.884 277.557 72.744 277.893 72.464C278.229 72.184 278.397 71.808 278.397 71.336C278.397 70.888 278.233 70.536 277.905 70.28C277.585 70.016 277.093 69.884 276.429 69.884C276.333 69.884 276.193 69.888 276.009 69.896C275.825 69.896 275.621 69.904 275.397 69.92C275.181 69.928 274.969 69.94 274.761 69.956C274.553 69.972 274.373 69.988 274.221 70.004V65.6H279.549V66.8H274.905L275.541 66.176V69.32ZM284.675 65.54C285.819 65.54 286.699 65.908 287.315 66.644C287.931 67.38 288.239 68.432 288.239 69.8C288.239 71.168 287.931 72.22 287.315 72.956C286.699 73.692 285.819 74.06 284.675 74.06C283.523 74.06 282.639 73.692 282.023 72.956C281.407 72.22 281.099 71.168 281.099 69.8C281.099 68.432 281.407 67.38 282.023 66.644C282.639 65.908 283.523 65.54 284.675 65.54ZM284.675 66.596C283.971 66.596 283.439 66.86 283.079 67.388C282.727 67.908 282.551 68.712 282.551 69.8C282.551 70.88 282.727 71.684 283.079 72.212C283.439 72.74 283.971 73.004 284.675 73.004C285.379 73.004 285.907 72.74 286.259 72.212C286.611 71.684 286.787 70.88 286.787 69.8C286.787 68.712 286.611 67.908 286.259 67.388C285.907 66.86 285.379 66.596 284.675 66.596Z" fill="#7C828A"/>
<path d="M277.224 38.32L276.912 37.708C277.008 37.7 277.148 37.696 277.332 37.696C277.524 37.688 277.724 37.684 277.932 37.684C278.14 37.684 278.316 37.684 278.46 37.684C279.1 37.684 279.652 37.796 280.116 38.02C280.588 38.244 280.952 38.548 281.208 38.932C281.464 39.316 281.592 39.752 281.592 40.24C281.592 40.808 281.456 41.304 281.184 41.728C280.92 42.152 280.544 42.48 280.056 42.712C279.576 42.944 279.008 43.06 278.352 43.06C277.84 43.06 277.3 42.972 276.732 42.796C276.172 42.62 275.676 42.388 275.244 42.1L275.82 41.02C276.172 41.292 276.556 41.504 276.972 41.656C277.388 41.808 277.804 41.884 278.22 41.884C278.788 41.884 279.24 41.744 279.576 41.464C279.912 41.184 280.08 40.808 280.08 40.336C280.08 39.888 279.916 39.536 279.588 39.28C279.268 39.016 278.776 38.884 278.112 38.884C278.016 38.884 277.876 38.888 277.692 38.896C277.508 38.896 277.304 38.904 277.08 38.92C276.864 38.928 276.652 38.94 276.444 38.956C276.236 38.972 276.056 38.988 275.904 39.004V34.6H281.232V35.8H276.588L277.224 35.176V38.32ZM284.642 38.32L284.33 37.708C284.426 37.7 284.566 37.696 284.75 37.696C284.942 37.688 285.142 37.684 285.35 37.684C285.558 37.684 285.734 37.684 285.878 37.684C286.518 37.684 287.07 37.796 287.534 38.02C288.006 38.244 288.37 38.548 288.626 38.932C288.882 39.316 289.01 39.752 289.01 40.24C289.01 40.808 288.874 41.304 288.602 41.728C288.338 42.152 287.962 42.48 287.474 42.712C286.994 42.944 286.426 43.06 285.77 43.06C285.258 43.06 284.718 42.972 284.15 42.796C283.59 42.62 283.094 42.388 282.662 42.1L283.238 41.02C283.59 41.292 283.974 41.504 284.39 41.656C284.806 41.808 285.222 41.884 285.638 41.884C286.206 41.884 286.658 41.744 286.994 41.464C287.33 41.184 287.498 40.808 287.498 40.336C287.498 39.888 287.334 39.536 287.006 39.28C286.686 39.016 286.194 38.884 285.53 38.884C285.434 38.884 285.294 38.888 285.11 38.896C284.926 38.896 284.722 38.904 284.498 38.92C284.282 38.928 284.07 38.94 283.862 38.956C283.654 38.972 283.474 38.988 283.322 39.004V34.6H288.65V35.8H284.006L284.642 35.176V38.32Z" fill="#7C828A"/>
<path d="M278.841 5.184C278.585 5.016 278.289 4.888 277.953 4.8C277.625 4.704 277.301 4.656 276.981 4.656C276.437 4.656 275.989 4.788 275.637 5.052C275.285 5.316 275.025 5.684 274.857 6.156C274.697 6.628 274.625 7.18 274.641 7.812C274.865 7.404 275.169 7.096 275.553 6.888C275.945 6.68 276.405 6.576 276.933 6.576C277.493 6.576 277.973 6.688 278.373 6.912C278.781 7.128 279.093 7.436 279.309 7.836C279.533 8.236 279.645 8.708 279.645 9.252C279.645 9.828 279.521 10.328 279.273 10.752C279.033 11.168 278.689 11.492 278.241 11.724C277.801 11.948 277.281 12.06 276.681 12.06C275.977 12.06 275.369 11.9 274.857 11.58C274.345 11.252 273.949 10.784 273.669 10.176C273.397 9.568 273.261 8.836 273.261 7.98C273.261 7.084 273.409 6.304 273.705 5.64C274.001 4.976 274.421 4.46 274.965 4.092C275.509 3.724 276.149 3.54 276.885 3.54C277.301 3.54 277.737 3.6 278.193 3.72C278.649 3.832 279.049 3.984 279.393 4.176L278.841 5.184ZM276.669 7.632C276.293 7.632 275.969 7.712 275.697 7.872C275.425 8.024 275.217 8.228 275.073 8.484C274.937 8.732 274.869 9.004 274.869 9.3C274.869 9.484 274.901 9.672 274.965 9.864C275.029 10.056 275.133 10.232 275.277 10.392C275.421 10.544 275.601 10.668 275.817 10.764C276.041 10.86 276.305 10.908 276.609 10.908C276.953 10.908 277.253 10.844 277.509 10.716C277.765 10.58 277.965 10.388 278.109 10.14C278.253 9.884 278.325 9.584 278.325 9.24C278.325 8.744 278.177 8.352 277.881 8.064C277.585 7.776 277.181 7.632 276.669 7.632ZM284.467 3.54C285.611 3.54 286.491 3.908 287.107 4.644C287.723 5.38 288.031 6.432 288.031 7.8C288.031 9.168 287.723 10.22 287.107 10.956C286.491 11.692 285.611 12.06 284.467 12.06C283.315 12.06 282.431 11.692 281.815 10.956C281.199 10.22 280.891 9.168 280.891 7.8C280.891 6.432 281.199 5.38 281.815 4.644C282.431 3.908 283.315 3.54 284.467 3.54ZM284.467 4.596C283.763 4.596 283.231 4.86 282.871 5.388C282.519 5.908 282.343 6.712 282.343 7.8C282.343 8.88 282.519 9.684 282.871 10.212C283.231 10.74 283.763 11.004 284.467 11.004C285.171 11.004 285.699 10.74 286.051 10.212C286.403 9.684 286.579 8.88 286.579 7.8C286.579 6.712 286.403 5.908 286.051 5.388C285.699 4.86 285.171 4.596 284.467 4.596Z" fill="#7C828A"/>
<path d="M192.43 204.6H195.802V213H194.194V205.236L194.902 205.944H192.43V204.6ZM197.012 204.6H200.384V213H198.776V205.236L199.484 205.944H197.012V204.6Z" fill="black"/>
<path d="M160.182 204.6H163.554V213H161.946V205.236L162.654 205.944H160.182V204.6ZM168.376 208.608C168.672 208.304 168.912 208 169.096 207.696C169.288 207.384 169.384 207.112 169.384 206.88C169.384 206.552 169.264 206.3 169.024 206.124C168.784 205.948 168.452 205.86 168.028 205.86C167.66 205.86 167.268 205.952 166.852 206.136C166.436 206.32 166.044 206.572 165.676 206.892L165.04 205.74C165.528 205.364 166.044 205.068 166.588 204.852C167.132 204.636 167.688 204.528 168.256 204.528C168.816 204.528 169.304 204.616 169.72 204.792C170.136 204.968 170.464 205.216 170.704 205.536C170.944 205.856 171.064 206.228 171.064 206.652C171.064 207.076 170.912 207.524 170.608 207.996C170.312 208.46 169.932 208.932 169.468 209.412L166.816 212.16L166.6 211.668H171.424V213H165.208V211.896L168.376 208.608Z" fill="black"/>
<path d="M128.164 204.6H131.536V213H129.928V205.236L130.636 205.944H128.164V204.6ZM136.766 208.116C137.526 208.18 138.138 208.412 138.602 208.812C139.074 209.204 139.31 209.728 139.31 210.384C139.31 210.912 139.174 211.38 138.902 211.788C138.63 212.188 138.246 212.504 137.75 212.736C137.254 212.96 136.662 213.072 135.974 213.072C135.398 213.072 134.83 212.988 134.27 212.82C133.718 212.644 133.25 212.416 132.866 212.136L133.502 210.948C133.838 211.22 134.21 211.432 134.618 211.584C135.026 211.736 135.442 211.812 135.866 211.812C136.258 211.812 136.594 211.756 136.874 211.644C137.154 211.524 137.366 211.36 137.51 211.152C137.662 210.936 137.738 210.692 137.738 210.42C137.738 209.98 137.57 209.648 137.234 209.424C136.898 209.2 136.434 209.088 135.842 209.088H134.57V208.164L137.402 205.38L137.618 205.908H133.286L133.274 204.6H138.89V205.536L135.782 208.56L135.59 207.996L136.766 208.116Z" fill="black"/>
<path d="M96.1233 204.6H99.4953V213H97.8873V205.236L98.5953 205.944H96.1233V204.6ZM100.789 210.984V209.856L103.525 204.6H105.073L102.169 210.264L101.785 209.664H107.509V210.984H100.789ZM104.809 207.684H106.297V213H104.809V207.684Z" fill="black"/>
<path d="M64.5003 204.6H67.8723V213H66.2643V205.236L66.9723 205.944H64.5003V204.6ZM71.7463 208.392L71.2783 207.696C71.4063 207.688 71.5703 207.684 71.7703 207.684C71.9703 207.676 72.1703 207.672 72.3703 207.672C72.5703 207.672 72.7343 207.672 72.8623 207.672C73.5103 207.672 74.0703 207.784 74.5423 208.008C75.0143 208.232 75.3783 208.536 75.6343 208.92C75.8983 209.296 76.0303 209.732 76.0303 210.228C76.0303 210.796 75.8943 211.296 75.6223 211.728C75.3503 212.152 74.9663 212.484 74.4703 212.724C73.9823 212.956 73.4063 213.072 72.7423 213.072C72.2143 213.072 71.6623 212.984 71.0863 212.808C70.5183 212.624 70.0143 212.384 69.5743 212.088L70.2103 210.888C70.5623 211.16 70.9423 211.376 71.3503 211.536C71.7583 211.688 72.1703 211.764 72.5863 211.764C73.1143 211.764 73.5303 211.636 73.8343 211.38C74.1463 211.124 74.3023 210.776 74.3023 210.336C74.3023 209.92 74.1503 209.592 73.8463 209.352C73.5503 209.112 73.0983 208.992 72.4903 208.992C72.3943 208.992 72.2503 208.996 72.0583 209.004C71.8743 209.004 71.6703 209.008 71.4463 209.016C71.2223 209.024 71.0023 209.036 70.7863 209.052C70.5783 209.068 70.4023 209.084 70.2583 209.1V204.6H75.6583V205.932H71.0263L71.7463 205.224V208.392Z" fill="black"/>
<path d="M32.4241 204.6H35.7961V213H34.1881V205.236L34.8961 205.944H32.4241V204.6ZM43.1741 206.304C42.9181 206.136 42.6301 206.008 42.3101 205.92C41.9901 205.824 41.6661 205.776 41.3381 205.776C40.8261 205.776 40.4021 205.9 40.0661 206.148C39.7301 206.388 39.4821 206.728 39.3221 207.168C39.1621 207.6 39.0901 208.112 39.1061 208.704C39.3221 208.328 39.6181 208.044 39.9941 207.852C40.3701 207.652 40.8101 207.552 41.3141 207.552C41.8741 207.552 42.3541 207.664 42.7541 207.888C43.1621 208.104 43.4741 208.416 43.6901 208.824C43.9141 209.224 44.0261 209.696 44.0261 210.24C44.0261 210.816 43.9021 211.316 43.6541 211.74C43.4061 212.164 43.0581 212.492 42.6101 212.724C42.1621 212.956 41.6341 213.072 41.0261 213.072C40.3141 213.072 39.6981 212.908 39.1781 212.58C38.6581 212.252 38.2581 211.784 37.9781 211.176C37.7061 210.56 37.5701 209.824 37.5701 208.968C37.5701 208.072 37.7181 207.292 38.0141 206.628C38.3181 205.964 38.7461 205.448 39.2981 205.08C39.8501 204.712 40.4981 204.528 41.2421 204.528C41.6661 204.528 42.1101 204.588 42.5741 204.708C43.0381 204.828 43.4421 204.984 43.7861 205.176L43.1741 206.304ZM41.0021 208.728C40.6501 208.728 40.3501 208.8 40.1021 208.944C39.8541 209.088 39.6621 209.276 39.5261 209.508C39.3981 209.74 39.3341 209.996 39.3341 210.276C39.3341 210.452 39.3621 210.632 39.4181 210.816C39.4821 210.992 39.5821 211.152 39.7181 211.296C39.8541 211.44 40.0221 211.556 40.2221 211.644C40.4221 211.732 40.6661 211.776 40.9541 211.776C41.2741 211.776 41.5501 211.716 41.7821 211.596C42.0221 211.476 42.2061 211.3 42.3341 211.068C42.4701 210.828 42.5381 210.548 42.5381 210.228C42.5381 209.764 42.4021 209.4 42.1301 209.136C41.8581 208.864 41.4821 208.728 41.0021 208.728Z" fill="black"/>
<path d="M0.269813 204.6H3.64181V213H2.03381V205.236L2.74181 205.944H0.269813V204.6ZM4.94784 204.6H11.4278V205.74L7.97184 213H6.26784L9.93984 205.296L10.3478 205.932H5.67984L6.39984 205.236L6.37584 207.12H4.94784V204.6Z" fill="black"/>
</svg>
